HIERARCHY
ROOT Hips
{
 OFFSET 0.000000 0.000000 0.000000
 CHANNELS 6 Xposition Yposition Zposition Yrotation Xrotation Zrotation
 JOINT Chest
 {
  OFFSET 0.000000 12.778769 -0.025672
  CHANNELS 3 Yrotation Xrotation Zrotation
  JOINT Chest2
  {
   OFFSET 0.000000 9.048585 0.046633
   CHANNELS 3 Yrotation Xrotation Zrotation
   JOINT Chest3
   {
    OFFSET 0.000000 8.173956 0.000000
    CHANNELS 3 Yrotation Xrotation Zrotation
    JOINT Chest4
    {
     OFFSET 0.000000 8.173956 0.000000
     CHANNELS 3 Yrotation Xrotation Zrotation
     JOINT Neck
     {
      OFFSET 0.000000 11.254521 0.000000
      CHANNELS 3 Yrotation Xrotation Zrotation
      JOINT Head
      {
       OFFSET 0.000000 7.627541 0.110895
       CHANNELS 3 Yrotation Xrotation Zrotation
       End Site
       {
        OFFSET 0.000000 14.324091 0.057923
       }
      }
     }
     JOINT RightCollar
     {
      OFFSET -2.416021 6.309018 0.000000
      CHANNELS 3 Yrotation Xrotation Zrotation
      JOINT RightShoulder
      {
       OFFSET -12.309578 0.000000 0.000000
       CHANNELS 3 Yrotation Xrotation Zrotation
       JOINT RightElbow
       {
        OFFSET -26.817880 0.000000 0.000000
        CHANNELS 3 Yrotation Xrotation Zrotation
        JOINT RightWrist
        {
         OFFSET -22.046493 0.000000 0.005727
         CHANNELS 3 Yrotation Xrotation Zrotation
         End Site
         {
          OFFSET -16.516461 0.000000 0.000000
         }
        }
       }
      }
     }
     JOINT LeftCollar
     {
      OFFSET 2.416021 6.309018 0.000000
      CHANNELS 3 Yrotation Xrotation Zrotation
      JOINT LeftShoulder
      {
       OFFSET 12.309578 0.000000 0.000000
       CHANNELS 3 Yrotation Xrotation Zrotation
       JOINT LeftElbow
       {
        OFFSET 26.817880 0.000000 0.000000
        CHANNELS 3 Yrotation Xrotation Zrotation
        JOINT LeftWrist
        {
         OFFSET 22.046493 0.000000 0.005727
         CHANNELS 3 Yrotation Xrotation Zrotation
         End Site
         {
          OFFSET 16.516461 0.000000 0.000000
         }
        }
       }
      }
     }
    }
   }
  }
 }
 JOINT RightHip
 {
  OFFSET -10.582077 0.125794 0.012836
  CHANNELS 3 Yrotation Xrotation Zrotation
  JOINT RightKnee
  {
   OFFSET 0.000000 -43.218284 0.001140
   CHANNELS 3 Yrotation Xrotation Zrotation
   JOINT RightAnkle
   {
    OFFSET 0.000000 -37.342314 0.092095
    CHANNELS 3 Yrotation Xrotation Zrotation
    JOINT RightToe
    {
     OFFSET 0.000000 -11.963287 17.799678
     CHANNELS 3 Yrotation Xrotation Zrotation
     End Site
     {
      OFFSET 0.000000 -1.355498 5.291052
     }
    }
   }
  }
 }
 JOINT LeftHip
 {
  OFFSET 10.582077 0.125794 0.012836
  CHANNELS 3 Yrotation Xrotation Zrotation
  JOINT LeftKnee
  {
   OFFSET 0.000000 -43.218284 0.001140
   CHANNELS 3 Yrotation Xrotation Zrotation
   JOINT LeftAnkle
   {
    OFFSET 0.000000 -37.342314 0.092095
    CHANNELS 3 Yrotation Xrotation Zrotation
    JOINT LeftToe
    {
     OFFSET 0.000000 -11.963287 17.799678
     CHANNELS 3 Yrotation Xrotation Zrotation
     End Site
     {
      OFFSET 0.000000 -1.355498 5.291052
     }
    }
   }
  }
 }
}
MOTION
Frames: 5
Frame Time: 0.016667
0.000000 92.231762 0.000000 0.000000 -5.826342 0.000000 0.000000 11.116423 0.000000 0.000000 -5.290081 0.000000 0.000000 0.000000 0.000000 0.000000 0.000000 0.000000 0.000000 12.665069 0.000000 0.000000 0.575450 0.000000 0.000000 0.000000 0.000000 0.000000 0.000000 0.000000 2.337306 0.000000 0.000000 -2.337306 0.000000 0.000000 0.000000 0.000000 0.000000 0.000000 0.000000 0.000000 -2.337306 0.000000 0.000000 2.337306 0.000000 0.000000 0.000000 8.578828 0.000000 0.000000 1.905768 0.000000 0.000000 -4.658254 0.000000 0.000000 0.000000 0.000000 0.000000 8.578828 0.000000 0.000000 1.905768 0.000000 0.000000 -4.658254 0.000000 0.000000 0.000000 0.000000
-85.405140 94.438829 -117.511645 -169.620608 -2.365320 2.705122 2.342113 -2.670092 1.171346 1.039235 -1.182260 0.532976 1.039235 -1.182260 0.532976 0.780430 -0.885793 0.401730 -2.347837 20.536516 -1.132069 -3.931764 1.951625 -1.356388 -4.242933 9.734698 11.728931 19.293301 -4.614568 69.325244 -51.097081 -8.791344 22.093464 21.018804 -8.757222 -2.205670 -1.631088 11.195048 -11.109000 -3.342129 -8.255259 -80.331434 3.704297 8.533785 -0.608114 7.614114 -3.802605 -0.434651 -0.659534 8.147074 -1.169490 4.854641 -0.780988 1.567208 6.006889 -7.906875 0.783717 -0.020600 0.017535 0.009109 10.983824 7.659913 -4.225782 16.104681 -2.122703 -2.382786 2.627542 -1.202641 -4.765763 0.035844 0.012797 0.040584
-85.421798 94.441267 -117.490819 -169.602040 -2.364819 2.692334 2.360443 -2.677642 1.174209 1.047054 -1.186322 0.534381 1.047054 -1.186322 0.534381 0.786300 -0.888830 0.402806 -2.334354 20.533840 -1.125077 -3.909340 1.946687 -1.347644 -4.251859 9.740782 11.709724 19.266637 -4.568593 69.393184 -50.509897 -8.647677 21.860537 20.873933 -8.721408 -2.214837 -1.617858 11.206754 -11.102186 -3.363754 -8.244109 -80.333388 3.756874 8.563315 -0.642813 7.626110 -3.764403 -0.561991 -0.652282 8.140912 -1.160686 4.856525 -0.787708 1.559640 6.076318 -7.900697 0.786283 -0.021859 0.013191 0.006676 10.995697 7.645245 -4.227890 16.100018 -2.115908 -2.380287 2.607021 -1.208871 -4.756679 0.037287 0.013702 0.043549
-85.437284 94.443260 -117.473563 -169.579894 -2.358840 2.679262 2.381953 -2.689085 1.179559 1.055661 -1.192207 0.535708 1.055661 -1.192207 0.535708 0.792763 -0.893234 0.403828 -2.324273 20.531652 -1.121749 -3.892008 1.942605 -1.344556 -4.268521 9.748427 11.689704 19.223800 -4.508340 69.489416 -49.901734 -8.447855 21.609076 20.765193 -8.685115 -2.197537 -1.612909 11.217142 -11.092694 -3.373894 -8.230149 -80.342529 3.818040 8.600646 -0.688582 7.606041 -3.768490 -0.666735 -0.650659 8.134840 -1.155436 4.859218 -0.801327 1.550566 6.085995 -7.898031 0.796227 -0.020994 0.011253 0.007853 11.002521 7.627682 -4.232794 16.094041 -2.114865 -2.377213 2.626711 -1.215055 -4.747125 0.039840 0.016542 0.045041
-85.454892 94.444458 -117.456050 -169.549073 -2.347943 2.664582 2.399956 -2.701208 1.186460 1.063738 -1.197583 0.539096 1.063738 -1.197583 0.539096 0.798831 -0.897253 0.406394 -2.315521 20.527069 -1.123271 -3.875644 1.933981 -1.349840 -4.292045 9.744986 11.669734 19.171830 -4.447932 69.596298 -49.313473 -8.251257 21.340171 20.712435 -8.657430 -2.175308 -1.615925 11.226647 -11.076843 -3.357429 -8.223578 -80.369526 3.877384 8.644961 -0.736358 7.567833 -3.797190 -0.714029 -0.660733 8.128261 -1.146889 4.854970 -0.821308 1.537418 6.035107 -7.897349 0.811688 -0.020023 0.011036 0.011848 11.002525 7.606940 -4.235304 16.086850 -2.113745 -2.373565 2.604317 -1.221296 -4.733936 0.038746 0.017428 0.041993
